<svg xmlns="http://www.w3.org/2000/svg" width="216.316" height="48.766" viewBox="0 0 216.316 48.766">
  <g id="header-logo-01" transform="translate(11.129 -64.556)">
    <g id="Group_10653" data-name="Group 10653" transform="translate(-11.129 68.798)">
      <path id="Path_1" data-name="Path 1" d="M20.92,338.669a1.579,1.579,0,0,0,.674-.134.74.74,0,0,0,.336-.713v-5.861a.743.743,0,0,0-.3-.7,1.785,1.785,0,0,0-.7-.146V330.8H24.88v.318a1.533,1.533,0,0,0-.805.232c-.14.119-.2.4-.2.856v2.6l2.507-2.611a2.586,2.586,0,0,0,.339-.395.511.511,0,0,0,.08-.282.3.3,0,0,0-.2-.3,3.785,3.785,0,0,0-.793-.1V330.8h3.366v.318a2.79,2.79,0,0,0-1.485.529,23.094,23.094,0,0,0-2.243,2.207l3.526,4.566a.522.522,0,0,0,.226.184,2.128,2.128,0,0,0,.351.065v.315H25.593v-.315a6.3,6.3,0,0,0,.763-.048.208.208,0,0,0,.193-.211.452.452,0,0,0-.065-.2,2.081,2.081,0,0,0-.22-.315l-2.112-2.745-.3.3v2.377a.731.731,0,0,0,.356.707,1.484,1.484,0,0,0,.671.14v.315H20.92Z" transform="translate(-20.92 -311.268)" fill="#231f20"/>
      <path id="Path_2" data-name="Path 2" d="M53.34,339.5v4.1a1.289,1.289,0,0,0,.083.541.594.594,0,0,0,.573.3.939.939,0,0,0,.538-.172,2.117,2.117,0,0,0,.38-.327v-3.452a.764.764,0,0,0-.14-.517.942.942,0,0,0-.594-.172v-.3h2.326v4.373a.71.71,0,0,0,.137.5.866.866,0,0,0,.541.175v.3c-.722.077-1.17.128-1.355.163a6.457,6.457,0,0,0-.891.253v-.8a4.142,4.142,0,0,1-.692.529,2.079,2.079,0,0,1-1,.273,1.744,1.744,0,0,1-1.058-.371,1.593,1.593,0,0,1-.5-1.337v-3.075a.719.719,0,0,0-.116-.49,1.217,1.217,0,0,0-.472-.2v-.3Z" transform="translate(-42.135 -317.383)" fill="#231f20"/>
      <path id="Path_3" data-name="Path 3" d="M75.664,339.5v.3a.938.938,0,0,0-.318.1c-.086.042-.125.131-.125.273a.514.514,0,0,0,0,.134,1.658,1.658,0,0,0,.065.2l.909,2.377h.039l.749-1.993a2.836,2.836,0,0,0-.065-.345,2.8,2.8,0,0,0-.154-.44.488.488,0,0,0-.175-.211,1.461,1.461,0,0,0-.345-.077v-.3H78.98v.3a2.347,2.347,0,0,0-.4.065.211.211,0,0,0-.152.214,1.149,1.149,0,0,0,.018.208,2.045,2.045,0,0,0,.077.3l.7,2.169h-.062l.87-2.308a.806.806,0,0,1,.024-.116.563.563,0,0,0,0-.1c0-.166-.048-.3-.151-.33a1.1,1.1,0,0,0-.422-.11v-.3h1.571v.3a.72.72,0,0,0-.336.154,1.082,1.082,0,0,0-.241.455l-1.815,4.854H78.4l-1.188-3.746h-.056l-1.39,3.737h-.3l-1.732-4.53a5,5,0,0,0-.315-.722.562.562,0,0,0-.345-.211v-.3Z" transform="translate(-57.585 -317.383)" fill="#231f20"/>
      <path id="Path_4" data-name="Path 4" d="M102.646,342.279a10.1,10.1,0,0,1,2.377-.968v-.891a1.189,1.189,0,0,0-.223-.8,1.04,1.04,0,0,0-.79-.255.945.945,0,0,0-.526.125.33.33,0,0,0-.2.3.351.351,0,0,0,.024.128.334.334,0,0,0,.068.092l.065.083a1.18,1.18,0,0,1,.128.22.719.719,0,0,1-.169.781.742.742,0,0,1-.511.193.829.829,0,0,1-.57-.208.742.742,0,0,1-.238-.594,1.254,1.254,0,0,1,.636-1.1,2.873,2.873,0,0,1,1.58-.392,3.181,3.181,0,0,1,1.664.407,1.571,1.571,0,0,1,.665,1.485v2.941a.35.35,0,0,0,.059.223.178.178,0,0,0,.149.089.2.2,0,0,0,.119-.027.729.729,0,0,0,.172-.146l.181.264a2,2,0,0,1-.76.564,1.311,1.311,0,0,1-.556.113.892.892,0,0,1-.749-.321,1.243,1.243,0,0,1-.205-.529,2.787,2.787,0,0,1-1.1.722,2.378,2.378,0,0,1-.734.128,1.487,1.487,0,0,1-.891-.321,1.189,1.189,0,0,1-.419-1,1.486,1.486,0,0,1,.755-1.31Zm2.041,1.577a2.118,2.118,0,0,0,.327-.339v-1.8a2.347,2.347,0,0,0-.826.383,1.331,1.331,0,0,0-.594,1.117.891.891,0,0,0,.178.594.5.5,0,0,0,.389.208A.89.89,0,0,0,104.687,343.856Z" transform="translate(-77.835 -317.025)" fill="#231f20"/>
      <path id="Path_5" data-name="Path 5" d="M121.24,338.307a.746.746,0,0,0,.419-.152.757.757,0,0,0,.172-.57V333.99a.743.743,0,0,0-.119-.49.968.968,0,0,0-.472-.2V333h2.237v4.616a.781.781,0,0,0,.11.508.937.937,0,0,0,.434.175v.3H121.24Zm.772-7.771a.835.835,0,0,1,.645-.276.856.856,0,0,1,.642.276.924.924,0,0,1,.267.671.951.951,0,0,1-.267.668.891.891,0,0,1-.642.273.873.873,0,0,1-.645-.273.936.936,0,0,1-.264-.668A.909.909,0,0,1,122.012,330.535Z" transform="translate(-91.438 -310.887)" fill="#231f20"/>
      <path id="Path_6" data-name="Path 6" d="M132.09,335.2v-.336c.1-.092.232-.211.383-.342a7.72,7.72,0,0,0,.573-.594,9.58,9.58,0,0,0,.963-1.289h.3v2.044h1.138v.52h-1.138v3.675a1.133,1.133,0,0,0,.071.431.389.389,0,0,0,.374.261.49.49,0,0,0,.386-.166,2.209,2.209,0,0,0,.3-.469l.279.137a2.823,2.823,0,0,1-.487.82,1.6,1.6,0,0,1-1.221.549,1.564,1.564,0,0,1-.722-.16,1.188,1.188,0,0,1-.594-1.123V335.2Z" transform="translate(-99.065 -312.561)" fill="#231f20"/>
      <path id="Path_7" data-name="Path 7" d="M155,338.669a1.746,1.746,0,0,0,.722-.128.725.725,0,0,0,.354-.719v-5.861a.725.725,0,0,0-.336-.71,1.828,1.828,0,0,0-.74-.134V330.8h4.1v.318a1.952,1.952,0,0,0-.752.128.728.728,0,0,0-.345.716v5.861a.734.734,0,0,0,.273.674,1.564,1.564,0,0,0,.823.172v.315H155Z" transform="translate(-115.169 -311.268)" fill="#231f20"/>
      <path id="Path_8" data-name="Path 8" d="M170.36,344.409a.757.757,0,0,0,.463-.178.742.742,0,0,0,.152-.544v-3.595a.734.734,0,0,0-.128-.5.791.791,0,0,0-.487-.193v-.3H172.6v.858a2.33,2.33,0,0,1,.7-.725,1.663,1.663,0,0,1,.942-.3,1.556,1.556,0,0,1,1.147.407,1.945,1.945,0,0,1,.413,1.426v2.941a.721.721,0,0,0,.134.526.811.811,0,0,0,.458.158v.3h-2.769v-.3a.892.892,0,0,0,.422-.178.772.772,0,0,0,.113-.505v-2.95a1.873,1.873,0,0,0-.08-.624.517.517,0,0,0-.532-.38.793.793,0,0,0-.544.226,2.133,2.133,0,0,0-.38.466v3.268c0,.267.033.431.11.5a.84.84,0,0,0,.422.178v.3H170.36Z" transform="translate(-125.966 -316.99)" fill="#231f20"/>
      <path id="Path_9" data-name="Path 9" d="M192.25,335.2v-.336l.38-.342c.2-.193.4-.392.576-.594a9.809,9.809,0,0,0,.957-1.289h.3v2.044h1.135v.52H194.46v3.675a.982.982,0,0,0,.077.431.38.38,0,0,0,.377.261.481.481,0,0,0,.377-.166,2.335,2.335,0,0,0,.3-.469l.282.137a2.822,2.822,0,0,1-.487.82,1.6,1.6,0,0,1-1.221.549,1.553,1.553,0,0,1-.719-.16,1.17,1.17,0,0,1-.594-1.123V335.2Z" transform="translate(-141.354 -312.561)" fill="#231f20"/>
      <path id="Path_10" data-name="Path 10" d="M206.292,339.761a2.27,2.27,0,0,1,1.741-.781,2.142,2.142,0,0,1,1.874,1.188,3.5,3.5,0,0,1,.3,1.09,4.208,4.208,0,0,1,.042.478h-3.033a4.474,4.474,0,0,0,.235,1.271,1.263,1.263,0,0,0,1.212,1.01,1.307,1.307,0,0,0,.778-.273,3.377,3.377,0,0,0,.556-.544l.273.175a3.232,3.232,0,0,1-1.263,1.3,2.378,2.378,0,0,1-1.066.229,2.308,2.308,0,0,1-1.613-.707,3,3,0,0,1-.755-2.252A3.048,3.048,0,0,1,206.292,339.761Zm2.546,1.542a5.35,5.35,0,0,0-.169-1.512.594.594,0,0,0-.624-.422.654.654,0,0,0-.651.5,4.5,4.5,0,0,0-.2,1.438Z" transform="translate(-150.717 -317.017)" fill="#231f20"/>
      <path id="Path_11" data-name="Path 11" d="M222.785,344.437a.753.753,0,0,0,.46-.16.653.653,0,0,0,.14-.472v-3.684a.778.778,0,0,0-.125-.508.891.891,0,0,0-.49-.181v-.3h2.237v.948a4.507,4.507,0,0,1,.737-.805,1.319,1.319,0,0,1,.844-.3.983.983,0,0,1,.654.25.868.868,0,0,1,.3.7.847.847,0,0,1-.2.594.7.7,0,0,1-.538.235.8.8,0,0,1-.654-.362c-.184-.244-.318-.368-.386-.368a.645.645,0,0,0-.478.3,1.334,1.334,0,0,0-.247.865v2.317c0,.392.054.639.163.737a1.188,1.188,0,0,0,.648.19v.3h-3.06Z" transform="translate(-162.807 -317.018)" fill="#231f20"/>
      <path id="Path_12" data-name="Path 12" d="M240.28,344.409a.767.767,0,0,0,.464-.178.7.7,0,0,0,.149-.544v-3.595a.776.776,0,0,0-.116-.5.829.829,0,0,0-.5-.193v-.3h2.24v.859a2.49,2.49,0,0,1,.7-.725,1.7,1.7,0,0,1,.945-.3,1.577,1.577,0,0,1,1.156.407,1.962,1.962,0,0,1,.407,1.426v2.941a.722.722,0,0,0,.134.526.8.8,0,0,0,.46.158v.3h-2.772v-.3a.841.841,0,0,0,.419-.178.773.773,0,0,0,.113-.505v-2.95a1.9,1.9,0,0,0-.074-.624.523.523,0,0,0-.535-.38.787.787,0,0,0-.541.226,2.051,2.051,0,0,0-.38.466v3.268a.784.784,0,0,0,.1.5.891.891,0,0,0,.419.178v.3H240.28Z" transform="translate(-175.115 -316.99)" fill="#231f20"/>
      <path id="Path_13" data-name="Path 13" d="M263.321,342.246a10.4,10.4,0,0,1,2.4-.969v-.891a1.206,1.206,0,0,0-.223-.8,1.036,1.036,0,0,0-.787-.255.89.89,0,0,0-.523.125.332.332,0,0,0-.208.3.429.429,0,0,0,.015.128.589.589,0,0,0,.074.092l.068.083a1.035,1.035,0,0,1,.128.22.684.684,0,0,1,.047.261.638.638,0,0,1-.211.52.745.745,0,0,1-.517.193.843.843,0,0,1-.57-.208.748.748,0,0,1-.232-.594,1.245,1.245,0,0,1,.633-1.1,2.851,2.851,0,0,1,1.56-.407,3.166,3.166,0,0,1,1.664.407,1.582,1.582,0,0,1,.662,1.485v2.941a.42.42,0,0,0,.065.223.185.185,0,0,0,.149.089.205.205,0,0,0,.122-.027.8.8,0,0,0,.169-.146l.178.264a1.982,1.982,0,0,1-.761.564,1.308,1.308,0,0,1-.553.113.891.891,0,0,1-.758-.321,1.142,1.142,0,0,1-.193-.529,2.851,2.851,0,0,1-1.1.722,2.448,2.448,0,0,1-.737.128,1.486,1.486,0,0,1-.891-.321,1.188,1.188,0,0,1-.419-1A1.485,1.485,0,0,1,263.321,342.246Zm2.053,1.577a2.005,2.005,0,0,0,.33-.339v-1.8a2.4,2.4,0,0,0-.826.383,1.328,1.328,0,0,0-.594,1.117.914.914,0,0,0,.172.594.517.517,0,0,0,.395.208.891.891,0,0,0,.52-.163Z" transform="translate(-190.783 -316.992)" fill="#231f20"/>
      <path id="Path_14" data-name="Path 14" d="M281.87,335.2v-.336c.1-.092.226-.211.377-.342.2-.193.4-.392.573-.594a9.367,9.367,0,0,0,.969-1.289h.3v2.044h1.144v.52h-1.144v3.675a1.025,1.025,0,0,0,.077.431.4.4,0,0,0,.374.261.49.49,0,0,0,.386-.166,2.107,2.107,0,0,0,.3-.469l.3.137a2.762,2.762,0,0,1-.484.82,1.61,1.61,0,0,1-1.227.549,1.483,1.483,0,0,1-.713-.16,1.162,1.162,0,0,1-.594-1.123V335.2Z" transform="translate(-204.35 -312.561)" fill="#231f20"/>
      <path id="Path_15" data-name="Path 15" d="M295.05,338.307a.7.7,0,0,0,.413-.152.722.722,0,0,0,.175-.57v-3.594a.739.739,0,0,0-.122-.49.891.891,0,0,0-.466-.2V333h2.234v4.616a.781.781,0,0,0,.11.508.969.969,0,0,0,.437.175v.3h-2.78Zm.769-7.771a.852.852,0,0,1,.645-.276.834.834,0,0,1,.636.276.924.924,0,0,1,.267.671.95.95,0,0,1-.267.668.873.873,0,0,1-.636.273.891.891,0,0,1-.645-.273.942.942,0,0,1-.27-.668A.915.915,0,0,1,295.819,330.536Z" transform="translate(-213.615 -310.888)" fill="#231f20"/>
      <path id="Path_16" data-name="Path 16" d="M306.841,339.831a2.522,2.522,0,0,1,3.788.015,3.319,3.319,0,0,1,0,4.18,2.528,2.528,0,0,1-3.8.021,3.328,3.328,0,0,1,0-4.215Zm1.084,3.892c.131.526.4.784.8.784a.74.74,0,0,0,.76-.594,7.83,7.83,0,0,0,.172-1.961,7.271,7.271,0,0,0-.184-1.967.74.74,0,0,0-.734-.594c-.41,0-.674.261-.8.79a7.873,7.873,0,0,0-.137,1.782A8.161,8.161,0,0,0,307.925,343.723Z" transform="translate(-221.365 -317.019)" fill="#231f20"/>
      <path id="Path_17" data-name="Path 17" d="M325.57,344.409a.79.79,0,0,0,.463-.178.731.731,0,0,0,.149-.544v-3.594a.772.772,0,0,0-.119-.5.811.811,0,0,0-.493-.193v-.3h2.237v.859a2.471,2.471,0,0,1,.7-.725,1.673,1.673,0,0,1,.942-.3,1.563,1.563,0,0,1,1.15.407,1.989,1.989,0,0,1,.41,1.426v2.941c0,.27.039.449.143.526a.73.73,0,0,0,.449.158v.3h-2.763v-.3a.891.891,0,0,0,.419-.178.766.766,0,0,0,.1-.505v-2.95a1.809,1.809,0,0,0-.077-.624.508.508,0,0,0-.529-.38.805.805,0,0,0-.544.226,2.267,2.267,0,0,0-.386.466v3.268a.716.716,0,0,0,.119.505.767.767,0,0,0,.413.178v.3H325.57Z" transform="translate(-235.069 -316.99)" fill="#231f20"/>
      <path id="Path_18" data-name="Path 18" d="M348.644,342.28a10.6,10.6,0,0,1,2.4-.968v-.891a1.159,1.159,0,0,0-.226-.8,1.012,1.012,0,0,0-.787-.255.94.94,0,0,0-.523.125.339.339,0,0,0-.2.3.35.35,0,0,0,.021.128.584.584,0,0,0,.074.092l.065.083a1.023,1.023,0,0,1,.128.22.682.682,0,0,1,.05.261.627.627,0,0,1-.22.52.74.74,0,0,1-.508.193.817.817,0,0,1-.57-.208.725.725,0,0,1-.241-.594,1.253,1.253,0,0,1,.636-1.1,2.87,2.87,0,0,1,1.571-.392,3.155,3.155,0,0,1,1.667.407,1.581,1.581,0,0,1,.663,1.485v2.941a.391.391,0,0,0,.059.223.181.181,0,0,0,.146.089.19.19,0,0,0,.122-.027.785.785,0,0,0,.178-.146l.181.264a2.079,2.079,0,0,1-.763.564,1.322,1.322,0,0,1-.55.113.906.906,0,0,1-.761-.321,1.189,1.189,0,0,1-.2-.529,2.84,2.84,0,0,1-1.105.722,2.378,2.378,0,0,1-.734.128,1.517,1.517,0,0,1-.891-.321,1.17,1.17,0,0,1-.413-1A1.485,1.485,0,0,1,348.644,342.28Zm2.056,1.577a2.414,2.414,0,0,0,.327-.339v-1.8a2.374,2.374,0,0,0-.82.383,1.325,1.325,0,0,0-.594,1.117.892.892,0,0,0,.169.594.525.525,0,0,0,.4.208A.87.87,0,0,0,350.7,343.857Z" transform="translate(-250.775 -317.026)" fill="#231f20"/>
      <path id="Path_19" data-name="Path 19" d="M367,338.687a.957.957,0,0,0,.454-.2.769.769,0,0,0,.14-.523v-6.191a.678.678,0,0,0-.131-.487,1.135,1.135,0,0,0-.463-.19v-.3h2.24v7.165a.706.706,0,0,0,.128.508,1.054,1.054,0,0,0,.457.214v.3H367Z" transform="translate(-264.191 -311.268)" fill="#231f20"/>
      <path id="Path_20" data-name="Path 20" d="M387.92,338.669a1.54,1.54,0,0,0,.692-.143.743.743,0,0,0,.315-.71v-5.843a.749.749,0,0,0-.3-.707,1.669,1.669,0,0,0-.7-.149V330.8h6.645v2.454h-.3a2.827,2.827,0,0,0-.731-1.589,2.991,2.991,0,0,0-1.913-.448,1.27,1.27,0,0,0-.668.11.594.594,0,0,0-.143.457v2.81a1.52,1.52,0,0,0,1.3-.41,3.149,3.149,0,0,0,.511-1.363h.3v4.055h-.3a2.766,2.766,0,0,0-.493-1.426,1.628,1.628,0,0,0-1.319-.443v2.81c0,.368.11.615.324.71a2.343,2.343,0,0,0,.971.143v.315h-4.189Z" transform="translate(-278.896 -311.268)" fill="#231f20"/>
      <path id="Path_21" data-name="Path 21" d="M413.154,342.246a10.334,10.334,0,0,1,2.406-.969v-.891a1.223,1.223,0,0,0-.226-.8,1.042,1.042,0,0,0-.793-.255.941.941,0,0,0-.523.125.333.333,0,0,0-.2.3.234.234,0,0,0,.03.128.431.431,0,0,0,.059.092l.071.083a.846.846,0,0,1,.131.22.906.906,0,0,1,.041.261.594.594,0,0,1-.223.52.7.7,0,0,1-.5.193.829.829,0,0,1-.57-.208.761.761,0,0,1-.238-.594,1.251,1.251,0,0,1,.633-1.1,2.872,2.872,0,0,1,1.56-.407,3.125,3.125,0,0,1,1.661.407,1.579,1.579,0,0,1,.668,1.485v2.941a.339.339,0,0,0,.071.223.154.154,0,0,0,.134.089.211.211,0,0,0,.125-.027.8.8,0,0,0,.169-.146l.178.264a1.914,1.914,0,0,1-.761.564,1.271,1.271,0,0,1-.549.113.915.915,0,0,1-.755-.321,1.329,1.329,0,0,1-.19-.529,2.808,2.808,0,0,1-1.1.722,2.375,2.375,0,0,1-.728.128,1.485,1.485,0,0,1-.891-.321,1.167,1.167,0,0,1-.419-1A1.485,1.485,0,0,1,413.154,342.246Zm2.05,1.577a2.284,2.284,0,0,0,.318-.339v-1.8a2.336,2.336,0,0,0-.814.383,1.331,1.331,0,0,0-.594,1.117.891.891,0,0,0,.175.594.487.487,0,0,0,.389.208A.917.917,0,0,0,415.2,343.823Z" transform="translate(-296.115 -316.992)" fill="#231f20"/>
      <path id="Path_22" data-name="Path 22" d="M431.72,338.307a.767.767,0,0,0,.425-.151.781.781,0,0,0,.172-.57v-3.595a.7.7,0,0,0-.128-.49.928.928,0,0,0-.469-.2V333h2.237v4.616c0,.27.039.434.119.508a.893.893,0,0,0,.431.175v.3H431.72Zm.769-7.771a.864.864,0,0,1,.648-.276.85.85,0,0,1,.639.276.927.927,0,0,1,.27.671.954.954,0,0,1-.27.668.893.893,0,0,1-1.286,0,.987.987,0,0,1-.261-.668A.957.957,0,0,1,432.489,330.536Z" transform="translate(-309.685 -310.888)" fill="#231f20"/>
      <path id="Path_23" data-name="Path 23" d="M442.549,344.437a.74.74,0,0,0,.463-.161.665.665,0,0,0,.146-.472V340.12a.742.742,0,0,0-.128-.508.891.891,0,0,0-.49-.181v-.3h2.237v.948a4.426,4.426,0,0,1,.749-.8,1.286,1.286,0,0,1,.844-.3.99.99,0,0,1,.645.25.968.968,0,0,1,.083,1.292.708.708,0,0,1-.544.235.811.811,0,0,1-.648-.362c-.181-.244-.315-.368-.38-.368a.665.665,0,0,0-.484.3,1.333,1.333,0,0,0-.238.865V343.5a1.088,1.088,0,0,0,.163.737,1.19,1.19,0,0,0,.642.19v.3h-3.06Z" transform="translate(-317.29 -317.017)" fill="#231f20"/>
      <path id="Path_24" data-name="Path 24" d="M470.108,341.739a3.7,3.7,0,0,1,1.521-1.539v.22a2.416,2.416,0,0,0-.8.867,8.771,8.771,0,0,0,0,4.527,2.352,2.352,0,0,0,.8.87v.211a3.5,3.5,0,0,1-1.263-1.111,3.975,3.975,0,0,1-.255-4.046Z" transform="translate(-336.366 -317.875)" fill="#231f20"/>
      <path id="Path_25" data-name="Path 25" d="M477.532,345.754a.992.992,0,0,0,.431-.077.5.5,0,0,0,.211-.463v-3.767a.485.485,0,0,0-.193-.452,1.225,1.225,0,0,0-.449-.092v-.193h2.507v.193a.993.993,0,0,0-.511.148c-.1.083-.137.267-.137.567v1.655L481,341.586a1.36,1.36,0,0,0,.214-.25.342.342,0,0,0,.047-.181.167.167,0,0,0-.128-.187,2.707,2.707,0,0,0-.5-.065v-.193H482.8v.193a1.844,1.844,0,0,0-.966.339,15.679,15.679,0,0,0-1.447,1.423l2.278,2.941a.374.374,0,0,0,.148.116.825.825,0,0,0,.223.033v.2h-2.5v-.2a2.367,2.367,0,0,0,.461-.03.122.122,0,0,0,.116-.131.366.366,0,0,0-.036-.128,1.19,1.19,0,0,0-.146-.2l-1.355-1.783-.187.2V345.2a.472.472,0,0,0,.22.46.97.97,0,0,0,.428.08v.2H477.52Z" transform="translate(-341.879 -318.234)" fill="#231f20"/>
      <path id="Path_26" data-name="Path 26" d="M497.659,354.476a.6.6,0,0,1,.443-.2.613.613,0,0,1,.448.2.642.642,0,0,1,.181.464.611.611,0,0,1-.181.457.594.594,0,0,1-.448.193.568.568,0,0,1-.443-.193.594.594,0,0,1-.19-.457A.624.624,0,0,1,497.659,354.476Z" transform="translate(-355.902 -327.773)" fill="#231f20"/>
      <path id="Path_27" data-name="Path 27" d="M503.7,343.81h.211a2.434,2.434,0,0,0,.594,1.266,1.245,1.245,0,0,0,.909.392.892.892,0,0,0,.719-.264,1,1,0,0,0,.208-.579.757.757,0,0,0-.226-.567,2.419,2.419,0,0,0-.594-.374l-.478-.25a3.415,3.415,0,0,1-1.01-.743,1.4,1.4,0,0,1-.3-.891,1.684,1.684,0,0,1,.4-1.066,1.408,1.408,0,0,1,1.188-.493,2.325,2.325,0,0,1,.79.131,3.093,3.093,0,0,0,.44.128.187.187,0,0,0,.163-.065.608.608,0,0,0,.08-.193h.226v1.708h-.211a2.436,2.436,0,0,0-.526-1.028,1.125,1.125,0,0,0-.891-.431.823.823,0,0,0-.594.211.71.71,0,0,0-.22.529.725.725,0,0,0,.205.552,4.774,4.774,0,0,0,.891.544l.55.3a2.485,2.485,0,0,1,.594.425,1.53,1.53,0,0,1,.41,1.075,1.679,1.679,0,0,1-.437,1.093,1.746,1.746,0,0,1-1.408.523,2.383,2.383,0,0,1-.457-.042,2.238,2.238,0,0,1-.452-.128l-.148-.051a.524.524,0,0,0-.1-.027h-.074c-.08,0-.143.015-.16.068a.49.49,0,0,0-.083.181H503.7Z" transform="translate(-360.282 -317.9)" fill="#231f20"/>
      <path id="Path_28" data-name="Path 28" d="M517.979,354.476a.608.608,0,0,1,.894,0,.661.661,0,0,1,.175.463.632.632,0,0,1-.175.458.594.594,0,0,1-.448.193.57.57,0,0,1-.446-.193.594.594,0,0,1-.181-.458A.63.63,0,0,1,517.979,354.476Z" transform="translate(-370.191 -327.773)" fill="#231f20"/>
      <path id="Path_29" data-name="Path 29" d="M527.6,340.523a4.366,4.366,0,0,0,.535.184.271.271,0,0,0,.232-.122.57.57,0,0,0,.1-.238h.214v1.812h-.187a3.924,3.924,0,0,0-.558-.933,1.521,1.521,0,0,0-1.188-.624,1.108,1.108,0,0,0-1.072.671,4.43,4.43,0,0,0-.312,1.815,4.158,4.158,0,0,0,.193,1.367,1.281,1.281,0,0,0,1.28,1.01,1.936,1.936,0,0,0,1.076-.336,3.758,3.758,0,0,0,.671-.612l.223.187a4.353,4.353,0,0,1-.772.728,2.207,2.207,0,0,1-1.31.413,2.673,2.673,0,0,1-1.863-.683,2.629,2.629,0,0,1-.835-2.035,2.745,2.745,0,0,1,.8-2.05,2.481,2.481,0,0,1,1.83-.731A2.554,2.554,0,0,1,527.6,340.523Z" transform="translate(-374.567 -317.978)" fill="#231f20"/>
      <path id="Path_30" data-name="Path 30" d="M542.481,354.476a.552.552,0,0,1,.434-.2.594.594,0,0,1,.449.2.646.646,0,0,1,.184.463.617.617,0,0,1-.184.458.6.6,0,0,1-.449.193.54.54,0,0,1-.434-.193.571.571,0,0,1-.193-.457A.594.594,0,0,1,542.481,354.476Z" transform="translate(-387.406 -327.772)" fill="#231f20"/>
      <path id="Path_31" data-name="Path 31" d="M549.869,345.03a4.291,4.291,0,0,1-.725,1.156,4.027,4.027,0,0,1-.558.478c-.229.146-.339.211-.339.211l-.027-.211a2.376,2.376,0,0,0,.793-.891,5.969,5.969,0,0,0,.3-2.258,6.051,6.051,0,0,0-.3-2.258,2.406,2.406,0,0,0-.793-.867v-.22a3.664,3.664,0,0,1,1.485,1.485,3.941,3.941,0,0,1,.463,1.937A4.253,4.253,0,0,1,549.869,345.03Z" transform="translate(-391.576 -317.854)" fill="#231f20"/>
      <path id="Path_32" data-name="Path 32" d="M496,285.894h-4.367a1.3,1.3,0,0,0-1.277,1.319V290.7H483.82a.724.724,0,0,1-.49-.68v-1.97a.713.713,0,0,1,.692-.719h1.221a.707.707,0,0,1,.689.719v.657h2.282v-1.485a1.3,1.3,0,0,0-1.283-1.319H482.57a1.307,1.307,0,0,0-1.283,1.319v3.488h-1.928v-4.094s0-.8-1.141-.8-1.123.8-1.123.8v6.565a.7.7,0,0,1-.692.719H473.09v1.45h4.988a1.31,1.31,0,0,0,1.277-1.337V292.18h16.636a1.307,1.307,0,0,0,1.283-1.325v-3.642A1.307,1.307,0,0,0,496,285.894Zm-.98,4.138a.713.713,0,0,1-.7.719h-1.236a.713.713,0,0,1-.689-.719v-1.97a.713.713,0,0,1,.689-.719h1.236a.713.713,0,0,1,.7.719Z" transform="translate(-338.765 -279.65)" fill="#231f20"/>
      <path id="Path_33" data-name="Path 33" d="M446.077,292.356a1.31,1.31,0,0,0,1.286-1.325v-3.642a1.307,1.307,0,0,0-1.286-1.319h-6.372a1.292,1.292,0,0,0-1.269,1.1.689.689,0,0,0-.042.208v5.879a.707.707,0,0,1-.692.719h-1.69a.71.71,0,0,1-.7-.719v-3.081s.03-.793-1.12-.793-1.138.793-1.138.793v3.915a1.31,1.31,0,0,0,1.277,1.328h5.05a1.31,1.31,0,0,0,1.28-1.328v-1.732Zm-5.178-4.129a.713.713,0,0,1,.7-.719h2.8a.71.71,0,0,1,.7.719v1.981a.71.71,0,0,1-.7.719h-2.8a.713.713,0,0,1-.7-.719Z" transform="translate(-310.626 -279.826)" fill="#231f20"/>
      <path id="Path_34" data-name="Path 34" d="M463.578,277.059h.864a.651.651,0,0,0,.639-.659v-.891a.659.659,0,0,0-.639-.668h-.861a.659.659,0,0,0-.642.668v.891a.648.648,0,0,0,.639.659Z" transform="translate(-331.63 -271.932)" fill="#231f20"/>
      <path id="Path_35" data-name="Path 35" d="M214.337,266.63c-1.144,0-1.12.8-1.12.8v9.117a.707.707,0,0,1-.7.722h-1.328v-3.511a1.3,1.3,0,0,0-1.28-1.328H205.55a1.3,1.3,0,0,0-1.28,1.328v1.485h2.264v-.645a.7.7,0,0,1,.692-.719h1.236a.7.7,0,0,1,.692.719v1.949a.7.7,0,0,1-.686.722h-1.248a.494.494,0,0,1-.2-.039H204.27v.157a1.209,1.209,0,0,0,.024.258v1.069h9.9a1.31,1.31,0,0,0,1.286-1.328v-9.958S215.478,266.63,214.337,266.63Z" transform="translate(-149.802 -266.161)" fill="#231f20"/>
      <path id="Path_36" data-name="Path 36" d="M135.51,265.05c-1.141,0-1.117.8-1.117.8v6.565a.716.716,0,0,1-.7.731h-5.537s-.532-.092-.446.891.446.559.446.559H129.6v.841a.7.7,0,0,1-.689.722H124a.707.707,0,0,1-.689-.722v-3.538s.021-.8-1.126-.8-1.144.8-1.144.8v4.382a1.31,1.31,0,0,0,1.286,1.328h8.259a1.307,1.307,0,0,0,1.28-1.328v-1.7h3.5a1.316,1.316,0,0,0,1.286-1.331v-7.4S136.654,265.05,135.51,265.05Z" transform="translate(-91.297 -265.05)" fill="#231f20"/>
      <path id="Path_37" data-name="Path 37" d="M245.6,266.63c-1.15,0-1.123.8-1.123.8v10.558s0,.793,1.138.793,1.126-.793,1.126-.793V267.426S246.743,266.63,245.6,266.63Z" transform="translate(-178.068 -266.161)" fill="#231f20"/>
      <path id="Path_38" data-name="Path 38" d="M132.379,310.08h-.891a.653.653,0,0,0-.639.671v.891a.648.648,0,0,0,.639.665h.891a.651.651,0,0,0,.636-.665v-.891A.659.659,0,0,0,132.379,310.08Z" transform="translate(-98.193 -296.703)" fill="#231f20"/>
      <path id="Path_39" data-name="Path 39" d="M140.793,310.08h-.864a.659.659,0,0,0-.639.671v.891a.654.654,0,0,0,.639.665h.864a.651.651,0,0,0,.642-.665v-.891A.656.656,0,0,0,140.793,310.08Z" transform="translate(-104.126 -296.703)" fill="#231f20"/>
      <path id="Path_40" data-name="Path 40" d="M184.361,288.7v-1.236a1.393,1.393,0,0,0-1.384-1.328H178.61a1.307,1.307,0,0,0-1.28,1.328V291.1a1.307,1.307,0,0,0,1.28,1.328h3.6v1a.707.707,0,0,1-.692.71h-3.306V295.6h4.979a1.228,1.228,0,0,0,1.188-1.322v-5.1A.359.359,0,0,0,184.361,288.7Zm-2.377,1.554a.707.707,0,0,1-.692.722h-1.236a.707.707,0,0,1-.7-.722V288.3a.707.707,0,0,1,.7-.719h1.236a.707.707,0,0,1,.692.719Z" transform="translate(-130.865 -279.875)" fill="#231f20"/>
      <path id="Path_41" data-name="Path 41" d="M344.23,266.37c-1.144,0-1.123.8-1.123.8v9.123a.71.71,0,0,1-.686.725h-1.263v-1.251a1.536,1.536,0,0,0-1.355-1.554h-9c0-1.848,2.709-3.4,2.709-3.4h4.854a1.161,1.161,0,0,0-.633-1.188H332.16c-4.786,2.228-3.648,5.849-3.648,5.849h9.364l.351.446v1.1H327.439v-1.753a.378.378,0,0,0,0-.481v-1.242a1.248,1.248,0,0,0-1.209-1.319h-4.358a1.31,1.31,0,0,0-1.292,1.319v3.642a1.313,1.313,0,0,0,1.292,1.325h3.586v.948a.713.713,0,0,1-.7.722h-3.3v1.438h4.985c.707,0,1-.594,1-1.325v-1.83H344.09a1.31,1.31,0,0,0,1.28-1.334v-9.952S345.361,266.37,344.23,266.37Zm-18.983,9.99a.71.71,0,0,1-.689.719h-1.239a.71.71,0,0,1-.692-.719v-1.97a.71.71,0,0,1,.692-.719h1.248a.71.71,0,0,1,.689.719Z" transform="translate(-231.561 -265.978)" fill="#231f20"/>
      <path id="Path_42" data-name="Path 42" d="M281.308,285.16c-1.144,0-1.114.8-1.114.8V289.5a.719.719,0,0,1-.7.725h-.342a.71.71,0,0,1-.7-.725v-3.544s.018-.8-1.123-.8-1.141.8-1.141.8v4.269h-5.193a.71.71,0,0,1-.689-.725v-3.544s.018-.8-1.126-.8-1.141.8-1.141.8v4.379a1.31,1.31,0,0,0,1.283,1.334h11.823a1.313,1.313,0,0,0,1.286-1.334v-4.379S282.451,285.16,281.308,285.16Z" transform="translate(-194.635 -279.186)" fill="#231f20"/>
      <path id="Path_43" data-name="Path 43" d="M407.64,266.37c-1.147,0-1.12.8-1.12.8v10.555s0,.8,1.141.8,1.114-.8,1.114-.8V267.169S408.775,266.37,407.64,266.37Z" transform="translate(-291.971 -265.978)" fill="#231f20"/>
      <path id="Path_44" data-name="Path 44" d="M287.855,280.788h.856a.659.659,0,0,0,.645-.665v-.891a.662.662,0,0,0-.645-.671h-.856a.657.657,0,0,0-.636.671v.891A.654.654,0,0,0,287.855,280.788Z" transform="translate(-208.11 -274.547)" fill="#231f20"/>
      <path id="Path_45" data-name="Path 45" d="M278.474,280.788h.859a.657.657,0,0,0,.636-.665v-.891a.66.66,0,0,0-.636-.671h-.859a.662.662,0,0,0-.645.671v.891A.659.659,0,0,0,278.474,280.788Z" transform="translate(-201.51 -274.547)" fill="#231f20"/>
      <path id="Path_46" data-name="Path 46" d="M300.267,310.45h-.856a.654.654,0,0,0-.642.665v.891a.657.657,0,0,0,.642.665h.856a.657.657,0,0,0,.642-.665v-.891a.651.651,0,0,0-.642-.665Z" transform="translate(-216.229 -296.963)" fill="#231f20"/>
      <path id="Path_47" data-name="Path 47" d="M308.676,310.45h-.864a.651.651,0,0,0-.642.665v.891a.653.653,0,0,0,.642.665h.864a.656.656,0,0,0,.642-.665v-.891A.654.654,0,0,0,308.676,310.45Z" transform="translate(-222.134 -296.963)" fill="#231f20"/>
      <path id="Path_48" data-name="Path 48" d="M84.026,290.861l-.5.446-.514-.434.5-.493Zm.817.85a3.691,3.691,0,0,1-.508.594l-.808-.452c-.1.092-.258.235-.46.41a2.006,2.006,0,0,1-.749-.4c.119-.11.3-.3.538-.541a1.614,1.614,0,0,0,.731.4,1.427,1.427,0,0,0,.247-.2c.089-.08.181-.16.264-.241Zm.594,2.264a1.307,1.307,0,0,1-.1.642h0a6.474,6.474,0,0,0-.247.636H83.806l-.134-.232a1.1,1.1,0,0,1-.22.241H82.145a1.836,1.836,0,0,1-.82,1.456,2.48,2.48,0,0,1-1.569.609c-1.144,0-1.717-.419-1.717-1.263a5.267,5.267,0,0,1,.27-1.316c.2-.7.4-1.037.594-1.037.033,0,.051,0,.051.044a3.364,3.364,0,0,1-.211.636,2.376,2.376,0,0,0-.217.826c0,.746.475,1.114,1.411,1.114a3.762,3.762,0,0,0,1-.252c.517-.193.781-.345.781-.464a2.57,2.57,0,0,0-.19-.856,3.515,3.515,0,0,0-.368-.79c.033-.086.217-.389.535-.912a3.64,3.64,0,0,1,.3.7.824.824,0,0,0,.247.416,1.487,1.487,0,0,0,.737.128,4.87,4.87,0,0,0,.671-.042,1.863,1.863,0,0,1,.689-1.245,5.751,5.751,0,0,0-.267,1.141l.027.119h.891a5.537,5.537,0,0,1-.14-.594c.116-.2.211-.339.27-.425a3,3,0,0,1,.318-.38Z" transform="translate(-61.071 -282.855)" fill="#231f20"/>
      <path id="Path_49" data-name="Path 49" d="M71.66,303.379c0,.05-.089.154-.267.318a1.06,1.06,0,0,1-.336.25,1.537,1.537,0,0,1-.33-.25,1.422,1.422,0,0,1-.3-.3c0-.045.08-.16.255-.362s.267-.3.3-.3a2.052,2.052,0,0,1,.356.3,2.221,2.221,0,0,1,.321.342Z" transform="translate(-55.722 -291.544)" fill="#231f20"/>
      <path id="Path_50" data-name="Path 50" d="M62.574,298.306l-.33.945a4.28,4.28,0,0,0-1.01-.208,2.155,2.155,0,0,0-1.242.258,9.735,9.735,0,0,1,.241,1.782,3.9,3.9,0,0,1-.125.737c-.083.4-.16.594-.241.609-.021-.41-.083-.918-.166-1.515-.077-.511-.154-1.013-.232-1.521,0-.1.143-.339.469-.728a1.573,1.573,0,0,1,.668-.342,3.527,3.527,0,0,1,.763-.175,1.221,1.221,0,0,0-.826-.419.947.947,0,0,0-.746.5c.327-.971.719-1.459,1.188-1.459.19,0,.475.217.85.654C62.087,297.73,62.331,298.027,62.574,298.306Z" transform="translate(-48.018 -287.347)" fill="#231f20"/>
      <path id="Path_51" data-name="Path 51" d="M53.083,303.379c0,.05-.092.154-.267.318a.993.993,0,0,1-.339.25,1.832,1.832,0,0,1-.33-.25,1.349,1.349,0,0,1-.3-.3c0-.045.08-.16.252-.362s.27-.3.3-.3a2.244,2.244,0,0,1,.348.3A2.38,2.38,0,0,1,53.083,303.379Z" transform="translate(-42.661 -291.544)" fill="#231f20"/>
      <path id="Path_52" data-name="Path 52" d="M34.374,292.587a.871.871,0,0,1-.481.817,2,2,0,0,1-.957.211,2.079,2.079,0,0,1,.576-.3c.371-.16.556-.279.556-.348s-.137-.068-.4-.089-.413-.1-.413-.238a1.639,1.639,0,0,1,.425-.85c.3-.36.514-.538.7-.538-.042.107-.107.279-.2.5a2.05,2.05,0,0,0-.342.229c-.163.143-.244.235-.244.3s.134.1.4.128S34.374,292.486,34.374,292.587Zm2.65-1.188c-.146.2-.362.505-.677.909h0a5.468,5.468,0,0,0,.1.817,4.986,4.986,0,0,1,.1.82,2.64,2.64,0,0,1-.1.594,2.211,2.211,0,0,0-.107.567.35.35,0,0,1-.3.1H32.38a1.31,1.31,0,0,1-.891-.3,1.108,1.108,0,0,1-.371-.873,3.016,3.016,0,0,1,.137-.775c.1-.4.229-.594.356-.594.042,0,.068.018.068.053a1.556,1.556,0,0,1-.083.252,1.034,1.034,0,0,0-.083.365.853.853,0,0,0,.273.633.951.951,0,0,0,.636.235h3.5c.027,0,.033-.062.033-.193s-.059-.535-.184-1.265-.2-1.117-.217-1.126l-.309-.226c.169-.333.255-.526.27-.565a2.569,2.569,0,0,1,.324-.535C35.835,290.683,36.23,291.055,37.024,291.4Z" transform="translate(-28.088 -282.799)" fill="#231f20"/>
      <path id="Path_53" data-name="Path 53" d="M24.446,303.379c0,.05-.092.154-.27.318a1.151,1.151,0,0,1-.33.25,1.722,1.722,0,0,1-.339-.25,1.846,1.846,0,0,1-.3-.3c0-.045.086-.16.255-.362s.27-.3.3-.3a2.071,2.071,0,0,1,.342.3A2.466,2.466,0,0,1,24.446,303.379Z" transform="translate(-22.53 -291.544)" fill="#231f20"/>
      <path id="Path_54" data-name="Path 54" d="M303.593,381.283a1.168,1.168,0,0,1-.389-.068,1.143,1.143,0,0,1-.342-.365c-.074.11-.146.217-.2.3a15.4,15.4,0,0,1-2.5.255c-.856,0-2.166.059-2.166-1.227,0-.466.5-1.444.68-1.444s-.264.535-.264.977c0,.969,1.019.969,1.732.969a14.609,14.609,0,0,0,2.6-.163,1.92,1.92,0,0,0,.181-.707c0-.116.547-.49.547-.49a1.984,1.984,0,0,1-.3,1.072c.036.2.193.19.3.19h.267v.71Zm-2.166-2.338-.722-.466-.226.434-.769-.478.3-.564.728.472.241-.44.758.5Z" transform="translate(-215.682 -344.355)" fill="#231f20"/>
      <path id="Path_55" data-name="Path 55" d="M319.13,382.921H317v-.7h1.961a3.267,3.267,0,0,0-.451-1.3c.122-.256.193-.425.354-.719a3.659,3.659,0,0,1,.478,1.545A8.363,8.363,0,0,1,319.13,382.921Zm-.3,1.967-.734-.475-.223.445-.772-.481.312-.573.725.472.241-.428.761.481Z" transform="translate(-229.044 -345.993)" fill="#231f20"/>
      <path id="Path_56" data-name="Path 56" d="M327.167,383.575c0,.532-.725,2.109-1.542,2.109-.258,0-1.655-.4-1.655-.594,0-.229.594.149,1.063.149a2.747,2.747,0,0,0,1.877-1.669c-.55,0-.965,0-1.233-.3-.466-.556.339-2.142.763-2.142.276,0,.719.57.772,1.726h.253v.71Zm-.853-1.661c-.232-.021-.517.437-.517.594.2.362.971.368,1.037.3S326.742,381.959,326.314,381.914Z" transform="translate(-233.944 -346.646)" fill="#231f20"/>
      <path id="Path_57" data-name="Path 57" d="M335.26,387.7V387h1.292v.71Z" transform="translate(-241.88 -350.773)" fill="#231f20"/>
      <path id="Path_58" data-name="Path 58" d="M342.317,376.574c-.11-.086-.437-.555-.508-.555s-.339.555-.68.555H339.07v-.7h2.27s.193-.11.184-.22a10.89,10.89,0,0,0-1.343-1.367s-.092.178-.154.119a2.989,2.989,0,0,1-.63-.763,2.7,2.7,0,0,1,.342-1.147,29.637,29.637,0,0,1,2.867-1.325l-.273.826c-.478.146-2.546,1.046-2.546,1.046s.645.653,1.316,1.325a13.241,13.241,0,0,0,1.485,1.506h.3v.71Z" transform="translate(-244.558 -339.645)" fill="#231f20"/>
      <path id="Path_59" data-name="Path 59" d="M353.256,373.215a.346.346,0,0,0-.089-.03c.089,1.058.217,2.335.217,2.377,0,.312-.137,1.352-.279,1.352H351.37v-.7H353a19.911,19.911,0,0,0-.362-3.357l-.045-.021a.256.256,0,0,1-.083-.371l.336-.653c.033-.057.1-.19.155-.149.163.092-.155.3.062.431a6.239,6.239,0,0,0,.573.327Z" transform="translate(-253.204 -339.985)" fill="#231f20"/>
      <path id="Path_60" data-name="Path 60" d="M362.556,376.618c-.062-.443-.235-3.081-.422-4.542-.044-.362.514-1.236.514-1.236.048.125.22,4.495.22,4.572A3.1,3.1,0,0,1,362.556,376.618Z" transform="translate(-260.769 -339.413)" fill="#231f20"/>
      <path id="Path_61" data-name="Path 61" d="M378.88,386.155h-.22s-.5,1.28-.864,1.462a5.611,5.611,0,0,1-2.094.651c-.76.036-1.521-.315-1.521-1.271a3.678,3.678,0,0,1,.826-2.2c.22,0-.475,1.057-.475,1.619,0,1.049.989,1.108,1.506,1.078a3.267,3.267,0,0,0,1.99-.594c0-.351-.214-.7-1.028-.642l-.422-.077c.125-.262.357-.648.357-.648s.413-.03.671-.039c.454-.021.716-.068,1.164-.068h.214v.71Zm-1.949,3.755-.671-.407-.2.386-.731-.449.3-.547.728.478.2-.4.639.413Z" transform="translate(-269.238 -349.226)" fill="#231f20"/>
      <path id="Path_62" data-name="Path 62" d="M389.74,387.7V387h1.3v.71Z" transform="translate(-280.175 -350.773)" fill="#231f20"/>
      <path id="Path_63" data-name="Path 63" d="M396.626,377.769H393.56v-.7h3.078a3.2,3.2,0,0,0-.083-.7,1.7,1.7,0,0,0-.193-.535l-.312.425a1.028,1.028,0,0,1-.746.264.786.786,0,0,1-.76-.547c0-.451.891-1.705,1.524-1.693.386,0,.936,1.319.936,2.287C397,376.563,396.875,377.769,396.626,377.769Zm-1.723-3.862-.728-.481.324-.556.728.466Zm.719,1a1.087,1.087,0,0,0-.564.511c-.015.16.246.252.353.315a1.37,1.37,0,0,0,.865-.107c-.086-.249-.455-.737-.654-.707Z" transform="translate(-282.861 -340.84)" fill="#231f20"/>
      <path id="Path_64" data-name="Path 64" d="M415.242,384.1a.864.864,0,0,1-.624-.336c0,.761-1.013,2.424-1.675,2.424a5.193,5.193,0,0,1-1.693-.734c.071-.315.677.41,1.274.208a3.727,3.727,0,0,0,1.812-2.079,8.089,8.089,0,0,0-.683-1.019l.353-.689c.214.333.383.636.555.891.232.336.431.615.772.615h.122v.71Z" transform="translate(-295.295 -347.167)" fill="#231f20"/>
      <path id="Path_65" data-name="Path 65" d="M424.9,387.7V387h1.3v.71Z" transform="translate(-304.89 -350.773)" fill="#231f20"/>
      <path id="Path_66" data-name="Path 66" d="M428.69,387.7V387h1.28v.71Z" transform="translate(-307.554 -350.773)" fill="#231f20"/>
      <path id="Path_67" data-name="Path 67" d="M434.637,383.947c-.089,0-.128-.068-.146-.143a1.383,1.383,0,0,1-.039-.279c-.05,0-.3.422-.342.422h-1.6v-.7h1.928l-.128-.826s.324-.76.478-.76a8.979,8.979,0,0,1,.089,1.384.2.2,0,0,0,.205.2h.122v.71Zm-.318,2.026-.808-.484.312-.594.823.431Z" transform="translate(-310.24 -347.019)" fill="#231f20"/>
      <path id="Path_68" data-name="Path 68" d="M444.274,371.779c-.46.148-2.576,1.123-2.576,1.123s2.356,1.806,2.252,2.644c-.071.651-.166.787-.3.915H440.98v-.7h2.68a5.184,5.184,0,0,0-1.563-1.619s-.1.273-.163.217a2.08,2.08,0,0,1-.618-.731,3.785,3.785,0,0,1,.336-1.245,29.663,29.663,0,0,1,2.867-1.372Z" transform="translate(-316.194 -339.533)" fill="#231f20"/>
      <path id="Path_69" data-name="Path 69" d="M454.648,367.057a3.1,3.1,0,0,0-1.269.5c-.1-.1.594-.514.594-.514-.214.018-.594-.068-.654-.229a.966.966,0,0,1,.891-.891c.048,0,.238,0,.238.19a.862.862,0,0,1-.089.241.4.4,0,0,0-.312-.146c-.071,0-.446.059-.493.25-.122.3.725.273,1.292.3A2.464,2.464,0,0,0,454.648,367.057Z" transform="translate(-324.868 -335.954)" fill="#231f20"/>
      <path id="Path_70" data-name="Path 70" d="M457.074,371.831a3.429,3.429,0,0,1-.258,1.687c-.122.312-.407.725-.407.787a4.274,4.274,0,0,1,.271,1.01c.059.4,0,.68-.357.68H454.4l.119-.746a3.927,3.927,0,0,0,1.405-1.138,7.488,7.488,0,0,0-1.3-1.723c-.027.134-.083.282-.1.386-.594-.416-1.162-.743-1.15-1.2,0,0-.054-.844.244-.844a6.484,6.484,0,0,1,2.605,3.09,1.762,1.762,0,0,0,.449-.906,5.711,5.711,0,0,0-.163-1.485,1.352,1.352,0,0,1-.232-.3,4.229,4.229,0,0,1,.44-.85,1.283,1.283,0,0,0,.781.912C457.57,371.2,457.2,371.647,457.074,371.831Zm-.93,2.635c-.276.437-1.108.82-1.108.864,0,.137,1.313,0,1.313,0A2.536,2.536,0,0,0,456.144,374.466Z" transform="translate(-324.909 -339.02)" fill="#231f20"/>
      <path id="Path_71" data-name="Path 71" d="M470.556,376.618c-.062-.443-.241-3.081-.422-4.542-.045-.362.514-1.236.514-1.236.047.125.22,4.495.22,4.572A3.153,3.153,0,0,1,470.556,376.618Z" transform="translate(-336.685 -339.413)" fill="#231f20"/>
      <path id="Path_72" data-name="Path 72" d="M476.084,383.837c-.321.716-.865,1.236-1.3,1.188a3.611,3.611,0,0,1-1.669-.478c0-.235.76.238,1.257.042.764-.3,1.857-1.3,1.848-2.079a1.877,1.877,0,0,0-.062-.434c-.3.74-.594.728-.906.7s-.52-.431-.52-.909.671-1.6,1.01-1.6c.244,0,.743.865.743,1.708A4.174,4.174,0,0,1,476.084,383.837ZM475.5,381.1c-.22,0-.541.422-.52.57a.555.555,0,0,0,.594.365c.092,0,.321-.018.4-.158C475.991,381.621,475.8,381.11,475.5,381.1Z" transform="translate(-338.779 -346.035)" fill="#231f20"/>
      <path id="Path_73" data-name="Path 73" d="M497.249,386.155h-.175s-.5,1.28-.867,1.462a5.581,5.581,0,0,1-2.079.651c-.77.036-1.527-.315-1.527-1.271a3.705,3.705,0,0,1,.823-2.2c.223,0-.478,1.057-.478,1.619,0,1.049.989,1.108,1.506,1.078a3.294,3.294,0,0,0,2-.594c0-.351-.214-.7-1.034-.642l-.422-.077c.131-.262.36-.648.36-.648l1.9-.107h.107v.71Z" transform="translate(-352.479 -349.226)" fill="#231f20"/>
      <path id="Path_74" data-name="Path 74" d="M508.06,387.7V387h1.3v.71Z" transform="translate(-363.346 -350.773)" fill="#231f20"/>
      <path id="Path_75" data-name="Path 75" d="M511.83,387.7V387h1.3v.71Z" transform="translate(-365.996 -350.773)" fill="#231f20"/>
      <path id="Path_76" data-name="Path 76" d="M517.487,373.215a.45.45,0,0,0-.095-.03c.095,1.058.22,2.335.22,2.377,0,.312-.131,1.352-.3,1.352H515.58v-.7h1.637a19.449,19.449,0,0,0-.359-3.357l-.045-.021a.25.25,0,0,1-.086-.371l.342-.653c.027-.057.089-.19.149-.149.16.092-.149.3.062.431a6.167,6.167,0,0,0,.568.327Z" transform="translate(-368.633 -339.985)" fill="#231f20"/>
      <path id="Path_77" data-name="Path 77" d="M525.4,383.837c-.324.716-.864,1.236-1.307,1.188a3.627,3.627,0,0,1-1.672-.478c0-.235.766.238,1.259.042.763-.3,1.857-1.3,1.845-2.079a1.748,1.748,0,0,0-.059-.434c-.3.74-.594.728-.891.7s-.526-.431-.526-.909.674-1.6,1.013-1.6c.241,0,.746.865.746,1.708A4.216,4.216,0,0,1,525.4,383.837Zm-.594-2.739c-.223,0-.544.422-.526.57s.22.365.612.365c.089,0,.318-.018.4-.158.015-.255-.178-.766-.469-.778Z" transform="translate(-373.44 -346.035)" fill="#231f20"/>
      <path id="Path_78" data-name="Path 78" d="M536.781,367.057a3.03,3.03,0,0,0-1.268.5c-.1-.1.594-.514.594-.514-.214.018-.609-.068-.657-.229a.966.966,0,0,1,.891-.891c.047,0,.237,0,.237.19a.916.916,0,0,1-.092.241.394.394,0,0,0-.3-.146c-.071,0-.446.059-.493.25-.125.3.719.273,1.292.3Z" transform="translate(-382.6 -335.954)" fill="#231f20"/>
      <path id="Path_79" data-name="Path 79" d="M539.26,371.831a3.5,3.5,0,0,1-.259,1.687c-.122.312-.4.725-.4.787a4.351,4.351,0,0,1,.262,1.01c.065.4,0,.68-.354.68h-1.919l.119-.746a3.956,3.956,0,0,0,1.405-1.138,7.491,7.491,0,0,0-1.289-1.723c-.03.134-.089.282-.107.386-.594-.416-1.159-.743-1.144-1.2,0,0-.056-.844.241-.844a6.5,6.5,0,0,1,2.605,3.09,1.718,1.718,0,0,0,.443-.906,5.354,5.354,0,0,0-.16-1.485s-.22-.226-.229-.3a3.965,3.965,0,0,1,.443-.85,1.274,1.274,0,0,0,.772.912C539.741,371.2,539.375,371.647,539.26,371.831Zm-.93,2.635c-.273.437-1.111.82-1.111.864,0,.137,1.316,0,1.316,0a2.6,2.6,0,0,0-.217-.864Z" transform="translate(-382.681 -339.02)" fill="#231f20"/>
      <path id="Path_80" data-name="Path 80" d="M552.706,376.618c-.068-.443-.238-3.081-.422-4.542-.044-.362.511-1.236.511-1.236.054.125.22,4.495.22,4.572A3.076,3.076,0,0,1,552.706,376.618Z" transform="translate(-394.431 -339.413)" fill="#231f20"/>
      <path id="Path_81" data-name="Path 81" d="M22.246,373h3.621l.024,1.227h-.157a1.578,1.578,0,0,0-.3-.751,1.057,1.057,0,0,0-.725-.178h-.33v3.725c0,.282.036.46.11.529a1.043,1.043,0,0,0,.5.131v.125H23.122v-.125a.8.8,0,0,0,.505-.152,1.054,1.054,0,0,0,.1-.594V373.3h-.342a1.1,1.1,0,0,0-.722.178,1.3,1.3,0,0,0-.3.751H22.21Z" transform="translate(-21.826 -340.932)" fill="#231f20"/>
      <path id="Path_82" data-name="Path 82" d="M35.3,377.3a.5.5,0,0,0,.336-.152.953.953,0,0,0,.08-.493v-3.393a.719.719,0,0,0-.048-.3c-.03-.065-.107-.1-.22-.1H35.3v-.128c.1-.027.208-.065.342-.11l.3-.095.3-.107v2.219a2.34,2.34,0,0,1,.345-.374.912.912,0,0,1,.594-.217.671.671,0,0,1,.677.478,1.7,1.7,0,0,1,.1.665v1.441a1.073,1.073,0,0,0,.074.49.434.434,0,0,0,.3.154v.092H36.993v-.092a.559.559,0,0,0,.348-.152.986.986,0,0,0,.08-.493v-1.426a1.375,1.375,0,0,0-.1-.549.38.38,0,0,0-.377-.211.692.692,0,0,0-.466.2c-.152.134-.223.217-.223.259v1.729a.977.977,0,0,0,.077.5.6.6,0,0,0,.345.149v.092H35.3Z" transform="translate(-31.028 -340.531)" fill="#231f20"/>
      <path id="Path_83" data-name="Path 83" d="M48.409,378.327a1.352,1.352,0,0,1,.33.968H46.763a2.133,2.133,0,0,0,.324,1.209.871.871,0,0,0,.7.377.773.773,0,0,0,.547-.2,1.875,1.875,0,0,0,.413-.553l.113.039a2.1,2.1,0,0,1-.481.844,1.126,1.126,0,0,1-.856.38,1,1,0,0,1-.891-.505,2.08,2.08,0,0,1-.324-1.156,2.044,2.044,0,0,1,.377-1.23,1.132,1.132,0,0,1,.951-.5,1.043,1.043,0,0,1,.772.327Zm-1.485.253a1.448,1.448,0,0,0-.143.472h1.307a1.639,1.639,0,0,0-.119-.52.526.526,0,0,0-.511-.3.594.594,0,0,0-.541.359Z" transform="translate(-38.766 -344.446)" fill="#231f20"/>
      <path id="Path_84" data-name="Path 84" d="M61.1,377.667a.784.784,0,0,0,.466-.158,1.188,1.188,0,0,0,.086-.594v-3.143a.855.855,0,0,0-.1-.511.686.686,0,0,0-.455-.149V373h3.4l.027,1.01h-.169a.96.96,0,0,0-.253-.627,1.487,1.487,0,0,0-.734-.131h-.862q-.128,0-.16.053a.356.356,0,0,0-.039.2v1.637h.915c.276,0,.449-.051.523-.143a1.315,1.315,0,0,0,.184-.561h.143v1.684h-.143a1.434,1.434,0,0,0-.184-.561.709.709,0,0,0-.523-.14h-.915v1.6a.838.838,0,0,0,.1.514.766.766,0,0,0,.455.146v.125H61.1Z" transform="translate(-49.163 -340.932)" fill="#231f20"/>
      <path id="Path_85" data-name="Path 85" d="M73.27,377.314a.74.74,0,0,0,.416-.134.932.932,0,0,0,.086-.511v-1.7a1.258,1.258,0,0,0-.027-.321.19.19,0,0,0-.2-.146.349.349,0,0,0-.065,0,1.289,1.289,0,0,0-.184.056v-.1l.131-.053c.362-.131.615-.229.755-.3a.259.259,0,0,1,.113-.042.236.236,0,0,1,0,.051v2.54a.93.93,0,0,0,.083.505.645.645,0,0,0,.4.134v.092H73.27Zm.49-4.753a.3.3,0,0,1,.46,0,.392.392,0,0,1,.1.27.374.374,0,0,1-.1.258.3.3,0,0,1-.46,0,.383.383,0,0,1-.092-.258.4.4,0,0,1,.092-.267Z" transform="translate(-57.718 -340.546)" fill="#231f20"/>
      <path id="Path_86" data-name="Path 86" d="M78.94,381.13a.7.7,0,0,0,.386-.125.538.538,0,0,0,.089-.38v-1.592a1.686,1.686,0,0,0-.053-.523.214.214,0,0,0-.211-.158.5.5,0,0,0-.086,0,.83.83,0,0,0-.11.027v-.1l.365-.148c.125-.051.214-.083.261-.107.1-.045.214-.092.324-.149,0,0,.027,0,.027.021a.468.468,0,0,1,0,.077v.594a2.426,2.426,0,0,1,.389-.505.555.555,0,0,1,.383-.175.3.3,0,0,1,.255.113.383.383,0,0,1,.1.276.437.437,0,0,1-.077.25.229.229,0,0,1-.2.1.33.33,0,0,1-.235-.125c-.08-.08-.143-.122-.184-.122a.5.5,0,0,0-.267.2.639.639,0,0,0-.16.41v1.6a.594.594,0,0,0,.128.428.57.57,0,0,0,.419.116v.092H78.94Z" transform="translate(-61.704 -344.362)" fill="#231f20"/>
      <path id="Path_87" data-name="Path 87" d="M87.106,380.063h.083a2.121,2.121,0,0,0,.2.621.7.7,0,0,0,.651.389.5.5,0,0,0,.374-.143.534.534,0,0,0,.146-.377.615.615,0,0,0-.071-.3.969.969,0,0,0-.279-.267l-.354-.226a2.167,2.167,0,0,1-.573-.475.969.969,0,0,1,.071-1.209.82.82,0,0,1,.621-.25,1.075,1.075,0,0,1,.362.068c.128.048.208.071.208.071.048,0,.077,0,.092-.015a.179.179,0,0,0,.045-.056h.092l.027.983H88.71a1.865,1.865,0,0,0-.169-.532.618.618,0,0,0-.579-.339.419.419,0,0,0-.351.151.544.544,0,0,0-.125.35c0,.217.146.413.434.594l.41.25a1.159,1.159,0,0,1,.671.951.921.921,0,0,1-.276.689,1.013,1.013,0,0,1-.722.264,1.385,1.385,0,0,1-.419-.074,1.666,1.666,0,0,0-.279-.068.065.065,0,0,0-.062.03.139.139,0,0,0-.048.065h-.089Z" transform="translate(-67.44 -344.325)" fill="#231f20"/>
      <path id="Path_88" data-name="Path 88" d="M96.2,375.968v.258h-.639v2.032a1.4,1.4,0,0,0,.045.413.3.3,0,0,0,.3.238.324.324,0,0,0,.2-.059,1.513,1.513,0,0,0,.193-.2l.074.08-.065.107a1.021,1.021,0,0,1-.351.356.741.741,0,0,1-.351.107.5.5,0,0,1-.5-.374,1.705,1.705,0,0,1-.074-.561v-2.142h-.339a.033.033,0,0,1-.027-.015v-.08a.9.9,0,0,1,.092-.089,2.928,2.928,0,0,0,.3-.324c.062-.083.211-.3.446-.662a.1.1,0,0,1,.036,0v.921Z" transform="translate(-72.755 -342.376)" fill="#231f20"/>
      <path id="Path_89" data-name="Path 89" d="M107.927,374.78a2.641,2.641,0,0,1-.092-.259c-.036-.116-.062-.2-.077-.279s-.03-.149-.039-.226a1.425,1.425,0,0,1-.018-.229,1.257,1.257,0,0,1,.276-.841.856.856,0,0,1,.7-.348.891.891,0,0,1,.63.244.858.858,0,0,1,.244.642,1.025,1.025,0,0,1-.315.766,2.818,2.818,0,0,1-.671.481c.184.374.321.642.407.8s.232.383.437.689a3.793,3.793,0,0,0,.463-.787,1.524,1.524,0,0,0,.131-.523.3.3,0,0,0-.131-.276.681.681,0,0,0-.3-.059v-.149h1.381v.149a.872.872,0,0,0-.315.08.773.773,0,0,0-.3.345l-.166.339a6.213,6.213,0,0,1-.3.555c-.077.131-.193.3-.354.529a2.963,2.963,0,0,0,.3.336,1.037,1.037,0,0,0,.7.339.556.556,0,0,0,.348-.116,1.4,1.4,0,0,0,.238-.27l.092.089a.891.891,0,0,1-.134.255,1.573,1.573,0,0,1-.214.3.96.96,0,0,1-.38.229.947.947,0,0,1-.25.039,1.037,1.037,0,0,1-.594-.208,4.481,4.481,0,0,1-.478-.443,2.345,2.345,0,0,1-.567.431,1.71,1.71,0,0,1-.826.2,1.063,1.063,0,0,1-.8-.3,1.091,1.091,0,0,1-.3-.817,1.462,1.462,0,0,1,.261-.861,2.86,2.86,0,0,1,.752-.68Zm.594,2.311a1.536,1.536,0,0,0,.478-.33,8.278,8.278,0,0,1-.46-.716,11.2,11.2,0,0,1-.517-1.013,2.253,2.253,0,0,0-.5.428,1.188,1.188,0,0,0-.261.755,1.061,1.061,0,0,0,.232.692.737.737,0,0,0,.594.3A1.093,1.093,0,0,0,108.521,377.091Zm.4-2.971a.98.98,0,0,0,.279-.671.662.662,0,0,0-.146-.449.442.442,0,0,0-.356-.169.425.425,0,0,0-.365.172.763.763,0,0,0-.131.466,1.869,1.869,0,0,0,.071.481,4.858,4.858,0,0,0,.187.538,2.317,2.317,0,0,0,.46-.354Z" transform="translate(-81.185 -340.65)" fill="#231f20"/>
      <path id="Path_90" data-name="Path 90" d="M131,377.667a.814.814,0,0,0,.455-.146.784.784,0,0,0,.107-.514v-3.235a.82.82,0,0,0-.107-.511.686.686,0,0,0-.455-.149V373h1.806v.128a.769.769,0,0,0-.475.137.674.674,0,0,0-.125.481v3.484a.438.438,0,0,0,.039.193.2.2,0,0,0,.157.083,1.219,1.219,0,0,0,.154.015h.3a2.767,2.767,0,0,0,1.162-.16,1.623,1.623,0,0,0,.594-.814h.163l-.315,1.257H131Z" transform="translate(-98.299 -340.932)" fill="#231f20"/>
      <path id="Path_91" data-name="Path 91" d="M145.108,379.58a6.557,6.557,0,0,1,1.135-.594v-.3a1.461,1.461,0,0,0-.059-.5.428.428,0,0,0-.44-.238.6.6,0,0,0-.3.089.312.312,0,0,0-.137.267,1,1,0,0,0,0,.145v.128a.315.315,0,0,1-.116.279.272.272,0,0,1-.154.044.256.256,0,0,1-.211-.1.383.383,0,0,1-.074-.238.767.767,0,0,1,.27-.52,1.087,1.087,0,0,1,.79-.27.832.832,0,0,1,.826.449,1.746,1.746,0,0,1,.116.719v1.426a1.2,1.2,0,0,0,.024.3.175.175,0,0,0,.175.146.214.214,0,0,0,.113-.024.951.951,0,0,0,.166-.128v.19a.89.89,0,0,1-.22.226.6.6,0,0,1-.359.14.335.335,0,0,1-.312-.16.829.829,0,0,1-.107-.383,2.923,2.923,0,0,1-.4.348.98.98,0,0,1-.535.2.594.594,0,0,1-.46-.22.766.766,0,0,1-.2-.55A1.061,1.061,0,0,1,145.108,379.58Zm1.135-.407a2.758,2.758,0,0,0-.594.3.921.921,0,0,0-.443.734.594.594,0,0,0,.184.481.418.418,0,0,0,.27.1.67.67,0,0,0,.386-.137.4.4,0,0,0,.181-.342Z" transform="translate(-107.892 -344.288)" fill="#231f20"/>
      <path id="Path_92" data-name="Path 92" d="M153.6,381.13a.69.69,0,0,0,.386-.125.535.535,0,0,0,.1-.38v-1.592a1.757,1.757,0,0,0-.065-.523.217.217,0,0,0-.217-.158.492.492,0,0,0-.083,0l-.107.027v-.1c.116-.051.238-.1.365-.148s.211-.083.258-.107c.107-.045.214-.092.327-.149a.042.042,0,0,1,.024.021.48.48,0,0,1,0,.077v.594a2.772,2.772,0,0,1,.389-.505.573.573,0,0,1,.383-.175.327.327,0,0,1,.258.113.393.393,0,0,1,.1.276.414.414,0,0,1-.071.25.22.22,0,0,1-.193.1.341.341,0,0,1-.241-.122.3.3,0,0,0-.181-.122c-.074,0-.16.065-.267.2a.648.648,0,0,0-.155.41v1.592a.6.6,0,0,0,.125.428.555.555,0,0,0,.416.116v.092H153.6Z" transform="translate(-114.185 -344.362)" fill="#231f20"/>
      <path id="Path_93" data-name="Path 93" d="M161.3,379.723a1.23,1.23,0,0,1-.151-.618,1.283,1.283,0,0,1,.3-.793.989.989,0,0,1,.82-.365,1.247,1.247,0,0,1,.5.122,1.29,1.29,0,0,0,.526.113h.428v.3h-.541q.051.13.089.264a1.721,1.721,0,0,1,.054.392,1.147,1.147,0,0,1-.3.746.98.98,0,0,1-.793.336,1.614,1.614,0,0,1-.276-.03c-.065,0-.143.059-.244.175a.538.538,0,0,0-.146.3c0,.077.074.131.217.169a1.763,1.763,0,0,0,.324.033,3.779,3.779,0,0,1,1.084.1.683.683,0,0,1,.472.716.992.992,0,0,1-.55.891,2.111,2.111,0,0,1-1.111.33,1.274,1.274,0,0,1-.814-.232.635.635,0,0,1-.3-.49.458.458,0,0,1,.074-.247,2.935,2.935,0,0,1,.315-.359l.208-.208.033-.036a1.194,1.194,0,0,1-.217-.128.331.331,0,0,1-.128-.253.512.512,0,0,1,.11-.3,4,4,0,0,1,.463-.511.841.841,0,0,1-.449-.416Zm.336,2.62a1.861,1.861,0,0,0,.677.113,1.6,1.6,0,0,0,.844-.2.594.594,0,0,0,.324-.5.315.315,0,0,0-.264-.312,3.026,3.026,0,0,0-.615-.05h-.478a1.69,1.69,0,0,1-.223-.033.851.851,0,0,1-.229-.042c-.051-.012-.083.077-.178.22a.755.755,0,0,0-.149.41A.4.4,0,0,0,161.636,382.343Zm.98-2.421a.757.757,0,0,0,.19-.594,2.212,2.212,0,0,0-.154-.767.523.523,0,0,0-.5-.419.419.419,0,0,0-.416.327,1.289,1.289,0,0,0-.059.431,1.609,1.609,0,0,0,.184.778.535.535,0,0,0,.472.348A.4.4,0,0,0,162.616,379.922Z" transform="translate(-119.31 -344.408)" fill="#231f20"/>
      <path id="Path_94" data-name="Path 94" d="M173.554,378.325a1.354,1.354,0,0,1,.333.968H171.9a2.109,2.109,0,0,0,.327,1.209.862.862,0,0,0,.7.377.784.784,0,0,0,.55-.2,1.866,1.866,0,0,0,.41-.552l.11.039a2.028,2.028,0,0,1-.478.844,1.117,1.117,0,0,1-.856.38,1.013,1.013,0,0,1-.909-.505,2.112,2.112,0,0,1-.315-1.156,2.079,2.079,0,0,1,.368-1.23,1.147,1.147,0,0,1,.986-.5A1.043,1.043,0,0,1,173.554,378.325Zm-1.485.252a1.522,1.522,0,0,0-.149.472h1.316a1.486,1.486,0,0,0-.119-.52.517.517,0,0,0-.508-.3.594.594,0,0,0-.544.36Z" transform="translate(-126.724 -344.445)" fill="#231f20"/>
      <path id="Path_95" data-name="Path 95" d="M181.71,380.055h.089a2.131,2.131,0,0,0,.193.621.71.71,0,0,0,.648.389.5.5,0,0,0,.377-.143.523.523,0,0,0,.14-.38.594.594,0,0,0-.077-.3.835.835,0,0,0-.279-.267l-.348-.226a2.124,2.124,0,0,1-.573-.475.868.868,0,0,1-.181-.556.891.891,0,0,1,.25-.654.823.823,0,0,1,.624-.25,1.085,1.085,0,0,1,.359.068,1.682,1.682,0,0,0,.223.071.131.131,0,0,0,.08-.015.176.176,0,0,0,.042-.056h.1l.027.983h-.089a1.781,1.781,0,0,0-.169-.532.615.615,0,0,0-.567-.348.422.422,0,0,0-.35.152.528.528,0,0,0-.125.35.713.713,0,0,0,.428.594l.419.249a1.157,1.157,0,0,1,.665.951.93.93,0,0,1-.276.689,1,1,0,0,1-.719.264,1.393,1.393,0,0,1-.422-.074,1.543,1.543,0,0,0-.279-.068s-.051,0-.065.03a.131.131,0,0,0-.042.065h-.1Z" transform="translate(-133.936 -344.318)" fill="#231f20"/>
      <path id="Path_96" data-name="Path 96" d="M190.839,375.964v.259H190.2v2.032a1.914,1.914,0,0,0,.036.413.315.315,0,0,0,.49.178,1.007,1.007,0,0,0,.2-.2l.077.08-.068.107a1,1,0,0,1-.339.365.734.734,0,0,1-.354.107.481.481,0,0,1-.493-.374,1.629,1.629,0,0,1-.074-.561v-2.151h-.339l-.024-.015a.047.047,0,0,1,0-.03.074.074,0,0,1,0-.051,1.118,1.118,0,0,1,.1-.089,2.375,2.375,0,0,0,.3-.324c.062-.083.211-.3.443-.662a.065.065,0,0,1,.042,0,.107.107,0,0,1,0,.057v.861Z" transform="translate(-139.284 -342.372)" fill="#231f20"/>
      <path id="Path_97" data-name="Path 97" d="M200.826,377.32a.741.741,0,0,0,.419-.134.923.923,0,0,0,.089-.511v-1.7a1.068,1.068,0,0,0-.033-.321.184.184,0,0,0-.193-.146.256.256,0,0,0-.068,0,1.689,1.689,0,0,0-.19.056v-.1l.137-.053q.544-.2.758-.3a.258.258,0,0,1,.113-.042v2.591a.959.959,0,0,0,.083.5.617.617,0,0,0,.392.134v.092H200.82Zm.49-4.753a.3.3,0,0,1,.463,0,.436.436,0,0,1,.092.27.416.416,0,0,1-.092.259.31.31,0,0,1-.463,0,.383.383,0,0,1-.092-.259.4.4,0,0,1,.092-.267Z" transform="translate(-147.378 -340.552)" fill="#231f20"/>
      <path id="Path_98" data-name="Path 98" d="M206.781,381.116a.545.545,0,0,0,.3-.131.692.692,0,0,0,.083-.413v-1.821a.932.932,0,0,0-.039-.3.235.235,0,0,0-.238-.131h-.125V378.2l.594-.211.3-.1h.027a.162.162,0,0,1,0,.056v.5a2.676,2.676,0,0,1,.452-.41.844.844,0,0,1,.505-.172.611.611,0,0,1,.389.14,1.156,1.156,0,0,1,.336.957v1.661a.535.535,0,0,0,.1.363.348.348,0,0,0,.3.125v.092h-1.328V381.1a.507.507,0,0,0,.321-.149.775.775,0,0,0,.092-.466v-1.521a1.153,1.153,0,0,0-.1-.508.371.371,0,0,0-.371-.2.635.635,0,0,0-.38.137,3.182,3.182,0,0,0-.273.27v1.984c0,.175.03.3.1.348a.5.5,0,0,0,.315.1v.092h-1.331Z" transform="translate(-151.553 -344.348)" fill="#231f20"/>
      <path id="Path_99" data-name="Path 99" d="M222.94,377.667a.733.733,0,0,0,.484-.158,1.188,1.188,0,0,0,.092-.594v-3.149a.853.853,0,0,0-.1-.511.736.736,0,0,0-.472-.143V373h1.821v.128a.763.763,0,0,0-.487.143.826.826,0,0,0-.107.511v1.485c.4-.386.719-.716.968-.977.457-.484.68-.8.68-.933a.187.187,0,0,0-.119-.193.981.981,0,0,0-.324-.044V373h1.69v.128a1.313,1.313,0,0,0-.487.137,2.337,2.337,0,0,0-.493.434l-1.26,1.319,1.533,1.869a6.025,6.025,0,0,0,.567.636.891.891,0,0,0,.44.16v.125H225.4v-.125a1.229,1.229,0,0,0,.356-.051.136.136,0,0,0,.1-.148.593.593,0,0,0-.062-.184,2.609,2.609,0,0,0-.19-.3l-1.239-1.509-.2.2v1.322a.788.788,0,0,0,.107.514.8.8,0,0,0,.472.145v.125H222.94Z" transform="translate(-162.927 -340.932)" fill="#231f20"/>
      <path id="Path_100" data-name="Path 100" d="M239.254,378.123v2.249a1.055,1.055,0,0,0,.056.383.44.44,0,0,0,.434.27.671.671,0,0,0,.422-.16,1.166,1.166,0,0,0,.241-.243v-1.943a.5.5,0,0,0-.092-.353.662.662,0,0,0-.371-.1v-.1h.992v2.516a.484.484,0,0,0,.077.318.361.361,0,0,0,.3.08v.1l-.244.074c-.053.018-.143.053-.264.092-.053.027-.169.068-.348.148a.017.017,0,0,1-.018-.018v-.63a1.9,1.9,0,0,1-.392.422.892.892,0,0,1-.567.22.778.778,0,0,1-.52-.22.933.933,0,0,1-.244-.722v-1.824a.49.49,0,0,0-.1-.371.541.541,0,0,0-.279-.083v-.1Z" transform="translate(-173.744 -344.53)" fill="#231f20"/>
      <path id="Path_101" data-name="Path 101" d="M252.228,378.113a1.063,1.063,0,0,0-.279.074.193.193,0,0,0-.089.187.858.858,0,0,0,.021.155c.015.05.033.116.056.187l.579,1.711.561-1.566a2.606,2.606,0,0,0,.065-.267.854.854,0,0,0,.045-.247.19.19,0,0,0-.071-.172.552.552,0,0,0-.208-.065V378h.778v.1a.3.3,0,0,0-.128.083,1.483,1.483,0,0,0-.14.321l-1,2.789a.252.252,0,0,0-.021.048.067.067,0,0,1-.071-.041l-.754-2.112-.764,2.124v.033h-.018a.059.059,0,0,1-.059-.039l-.93-2.605a4.464,4.464,0,0,0-.2-.511.3.3,0,0,0-.2-.1V378h1.159v.1a.441.441,0,0,0-.22.062.2.2,0,0,0-.08.187,2.759,2.759,0,0,0,.131.511c.05.143.113.324.19.538l.336.977.558-1.355v-.048a.92.92,0,0,0-.068-.246c-.042-.119-.08-.226-.122-.321a.508.508,0,0,0-.143-.226.357.357,0,0,0-.223-.077V378h1.3Z" transform="translate(-181.526 -344.446)" fill="#231f20"/>
      <path id="Path_102" data-name="Path 102" d="M265.7,379.58a6.117,6.117,0,0,1,1.135-.594v-.3a1.373,1.373,0,0,0-.062-.5.431.431,0,0,0-.44-.238.594.594,0,0,0-.3.089.3.3,0,0,0-.143.267.62.62,0,0,0,.015.146.343.343,0,0,1,0,.128.321.321,0,0,1-.116.279.3.3,0,0,1-.371-.054.425.425,0,0,1-.074-.238.788.788,0,0,1,.273-.52,1.09,1.09,0,0,1,.79-.27.832.832,0,0,1,.826.449,1.74,1.74,0,0,1,.119.719v1.426a1.2,1.2,0,0,0,.024.3.169.169,0,0,0,.169.146.235.235,0,0,0,.119-.024,1.092,1.092,0,0,0,.163-.128v.19a1.056,1.056,0,0,1-.217.226.6.6,0,0,1-.359.14.333.333,0,0,1-.312-.16.707.707,0,0,1-.1-.383,2.917,2.917,0,0,1-.4.348.965.965,0,0,1-.532.2.594.594,0,0,1-.466-.22.775.775,0,0,1-.193-.55A1.048,1.048,0,0,1,265.7,379.58Zm1.135-.407a3,3,0,0,0-.594.3.93.93,0,0,0-.437.734.594.594,0,0,0,.187.481.409.409,0,0,0,.267.1.644.644,0,0,0,.383-.137.4.4,0,0,0,.187-.342Z" transform="translate(-192.659 -344.288)" fill="#231f20"/>
      <path id="Path_103" data-name="Path 103" d="M274.5,377.314a.748.748,0,0,0,.416-.134.932.932,0,0,0,.086-.511v-1.7a1,1,0,0,0-.03-.321.184.184,0,0,0-.193-.146.245.245,0,0,0-.065,0,1.687,1.687,0,0,0-.19.056v-.1l.134-.053c.365-.131.615-.229.758-.3a.431.431,0,0,1,.1-.042c.021,0,.021.036.021.051v2.54a.93.93,0,0,0,.083.505.628.628,0,0,0,.392.134v.092H274.5Zm.49-4.753a.3.3,0,0,1,.46,0,.393.393,0,0,1,.1.27.375.375,0,0,1-.1.258.3.3,0,0,1-.461,0,.383.383,0,0,1-.092-.258.4.4,0,0,1,.092-.267Z" transform="translate(-199.169 -340.546)" fill="#231f20"/>
      <path id="Path_104" data-name="Path 104" d="M281.89,375.967v.258h-.633v2.032a1.4,1.4,0,0,0,.045.413.3.3,0,0,0,.3.238.322.322,0,0,0,.2-.059,1.214,1.214,0,0,0,.19-.2l.083.08-.068.107a1.025,1.025,0,0,1-.342.365.723.723,0,0,1-.348.107.493.493,0,0,1-.5-.374,1.806,1.806,0,0,1-.071-.561v-2.151H280.4l-.024-.015a.05.05,0,0,1,0-.03c0-.024,0-.042.015-.051l.092-.089a2.753,2.753,0,0,0,.3-.324c.062-.083.211-.3.44-.662a.1.1,0,0,1,.042,0,.093.093,0,0,1,0,.059v.862Z" transform="translate(-203.297 -342.375)" fill="#231f20"/>
    </g>
    <g id="Group_10652" data-name="Group 10652" transform="translate(156.193 64.556)">
      <path id="Path_105" data-name="Path 105" d="M207.165,31.152V31.11c4.084-8.621,13.1-11.976,13.189-12.009l-.03-.1A23.229,23.229,0,0,0,203,31.069l.056.083Z" transform="translate(-200.311 -19)" fill="#29a7df"/>
      <path id="Path_106" data-name="Path 106" d="M229.4,33.075l.046.083h6.833l.012-.049c1.157-5.107,7.617-11.338,7.675-11.4l-.056-.1A23.565,23.565,0,0,0,229.4,33.075Z" transform="translate(-220.603 -21.006)" fill="#29a7df"/>
      <path id="Path_107" data-name="Path 107" d="M266.839,40.4h5.84V31.072l-.09-.042a27.046,27.046,0,0,0-5.8,9.295Z" transform="translate(-249.341 -28.246)" fill="#29a7df"/>
      <path id="Path_108" data-name="Path 108" d="M327.2,31.11l.014.042h4.125l.051-.083A23.259,23.259,0,0,0,314.041,19l-.021.1C314.117,19.134,323.125,22.489,327.2,31.11Z" transform="translate(-285.643 -19)" fill="#29a7df"/>
      <path id="Path_109" data-name="Path 109" d="M307.428,33.11v.049h6.828l.058-.083A23.66,23.66,0,0,0,299.795,21.61l-.065.1C299.792,21.774,306.271,28,307.428,33.11Z" transform="translate(-274.66 -21.006)" fill="#29a7df"/>
      <path id="Path_110" data-name="Path 110" d="M300,31l-.095.042v9.334h5.842l.049-.074A27.473,27.473,0,0,0,300,31Z" transform="translate(-274.798 -28.223)" fill="#29a7df"/>
      <path id="Path_111" data-name="Path 111" d="M199.2,101.871c-6.7-12.619-1.321-23.157-1.263-23.265l-.056-.086h-4.227v.042c-5.882,13.737,1.469,23.219,1.536,23.323h.023l3.952.051Z" transform="translate(-191.379 -64.748)" fill="#29a7df"/>
      <path id="Path_112" data-name="Path 112" d="M225.974,82.638c.058-.747.787-3.531.787-3.547l-.039-.081h-6.983v.03a24.686,24.686,0,0,0,1.435,23.33l.021.019h6.34l.03-.1a1.6,1.6,0,0,1-.435-.835l-.016-.032s-.764-.056-.81-.062-7.45-12.983-7.511-13.094c.1-.037,2.39-1.113,2.39-1.113l.018-.072s-1.182-1.944-1.238-2.045c.118-.051,6.016-2.369,6.016-2.369Z" transform="translate(-211.404 -65.125)" fill="#29a7df"/>
      <path id="Path_113" data-name="Path 113" d="M263.424,79.25h-.035l-.759,2.911.083.051,6.835-2.855-.019-.106Z" transform="translate(-246.144 -65.309)" fill="#29a7df"/>
      <path id="Path_114" data-name="Path 114" d="M241.86,101.933l-.069-.053-3.188,1.189-.032.081.606,1.062,2.67-.939Z" transform="translate(-227.651 -82.703)" fill="#29a7df"/>
      <path id="Path_115" data-name="Path 115" d="M246.474,114.28l-1.444.541-.03.088.437.879h1.044l.046-.046a5.319,5.319,0,0,1,0-1.388Z" transform="translate(-232.593 -92.234)" fill="#29a7df"/>
      <path id="Path_116" data-name="Path 116" d="M234.178,119.555l-.8.507L236.4,125.1h1.458l.053-.067c-.081-.231-.213-2.719-.257-3.66v-.051H235.4c-.035-.044-1.18-1.8-1.18-1.8Z" transform="translate(-223.662 -96.262)" fill="#29a7df"/>
      <path id="Path_117" data-name="Path 117" d="M259.022,128l-.014.035a20.772,20.772,0,0,0,.109,3.424v.049l7.483.058.056-.058V128H259.02Z" transform="translate(-243.32 -102.78)" fill="#29a7df"/>
      <path id="Path_118" data-name="Path 118" d="M260.58,91.414l.083.044c.331-.3,4.817-1.886,7.15-2.689h.035V87.478l-.072-.058-7.064,2.545-.021.021v.032C260.629,90.278,260.58,91.372,260.58,91.414Z" transform="translate(-244.568 -71.589)" fill="#29a7df"/>
      <path id="Path_119" data-name="Path 119" d="M259.028,102,259,102l-.056,2.138.056.06,7.591,0,.056-.062V99.184l-.083-.044Z" transform="translate(-243.307 -80.597)" fill="#29a7df"/>
      <path id="Path_120" data-name="Path 120" d="M300.888,94.012l-.06-.062-1.071.377-.046.019v5.93l.072.051,1.106-.009Z" transform="translate(-274.644 -76.608)" fill="#29a7df"/>
      <path id="Path_121" data-name="Path 121" d="M307.73,94.246a31.218,31.218,0,0,0-1.275-14.718l-.014-.028H299.71v2.376l.083.044,3.061-1.31V90.791h-3.026v3.471l.051.053h7.851Z" transform="translate(-274.644 -65.502)" fill="#29a7df"/>
      <path id="Path_122" data-name="Path 122" d="M345.148,85.215a16.3,16.3,0,0,0-1.867-5.687l-.014-.028h-6.974l-.053.067c2.4,8.742,1.28,13.8,1.273,13.848l.106.032s2.564-8.1,2.585-8.168h4.884Z" transform="translate(-302.722 -65.502)" fill="#29a7df"/>
      <path id="Path_123" data-name="Path 123" d="M338.668,141.135l.019-.028c3.839-6.37,3.394-11.569,3.394-11.645v-.042h-4.972l-3.559,10.993c-.088.116-.8-.035-1.282-.192h-.037l-.391.845.042.081Z" transform="translate(-299.34 -103.871)" fill="#29a7df"/>
      <path id="Path_124" data-name="Path 124" d="M267.193,169.974l-.023.023v.025a10.645,10.645,0,0,0,.574,1.411l.021.025,5.146.016.055-.049v-.893l-.03-.019C269.868,167.389,267.221,169.948,267.193,169.974Z" transform="translate(-249.633 -134.265)" fill="#29a7df"/>
      <path id="Path_125" data-name="Path 125" d="M303.414,169.268a4.267,4.267,0,0,0-3.094,1.481v.912l.044.049,5.514-.016.014-.03c0-.028.22-.842.266-1.157v-.023l-.016-.023A4.254,4.254,0,0,0,303.414,169.268Z" transform="translate(-275.113 -134.498)" fill="#29a7df"/>
      <path id="Path_126" data-name="Path 126" d="M214.974,187.789l-.023-.039h-4.024l-.037.086c5.731,8.288,15.75,9.616,15.829,9.635l.039-.1A25.871,25.871,0,0,1,214.974,187.789Z" transform="translate(-206.376 -148.705)" fill="#29a7df"/>
      <path id="Path_127" data-name="Path 127" d="M243.625,188.012l-.023-.032h-6.365l-.046.09a25.028,25.028,0,0,0,12.666,8.871l.039-.093A27.713,27.713,0,0,1,243.625,188.012Z" transform="translate(-226.59 -148.881)" fill="#29a7df"/>
      <path id="Path_128" data-name="Path 128" d="M272.1,188l-.042.072a25.278,25.278,0,0,0,4.577,6.71l.09-.035V188H272.1Z" transform="translate(-253.392 -148.897)" fill="#29a7df"/>
      <path id="Path_129" data-name="Path 129" d="M324.912,187.75h-.026l-.018.019a27.8,27.8,0,0,1-12.078,9.6l.03.1c.09-.019,10.109-1.347,15.845-9.635l-.051-.086Z" transform="translate(-284.698 -148.705)" fill="#29a7df"/>
      <path id="Path_130" data-name="Path 130" d="M312.94,188.07l-.051-.09h-6.3v.032a30.354,30.354,0,0,1-6.479,8.836l.042.093A25.041,25.041,0,0,0,312.94,188.07Z" transform="translate(-274.952 -148.881)" fill="#29a7df"/>
      <path id="Path_131" data-name="Path 131" d="M304.915,188.067l-.056-.067H300v6.752l.095.035A23.839,23.839,0,0,0,304.915,188.067Z" transform="translate(-274.867 -148.897)" fill="#29a7df"/>
      <path id="Path_132" data-name="Path 132" d="M369.237,79.753l-.016-.023h-4.058l-.048.074a21.085,21.085,0,0,1,1.532,5.6v.049h2.145c-.023.12-.463,1.6-.491,1.668h-5.947v.652h5.768c-.03.111-.231,1.1-.245,1.189H361.93v.75h5.553c-1.418,10.22-3.679,13-3.7,13.038l.035.088h3.966l.018-.025C375.058,90.346,369.293,79.855,369.237,79.753Z" transform="translate(-322.467 -65.678)" fill="#29a7df"/>
    </g>
  </g>
</svg>
